<svg xmlns="http://www.w3.org/2000/svg" width="1200" height="1200" viewBox="0 0 1200 1200">
  <defs>
    <style>
      .cls-1 {
        fill: #90a4ae;
      }

      .cls-1, .cls-2, .cls-3, .cls-4, .cls-5 {
        fill-rule: evenodd;
      }

      .cls-2 {
        fill: #cfd8dc;
      }

      .cls-3 {
        fill: #b71c1c;
      }

      .cls-4 {
        fill: #b0bec5;
      }

      .cls-5 {
        fill: #f44336;
      }
    </style>
  </defs>
  <path id="Color_Fill_6" data-name="Color Fill 6" class="cls-1" d="M324,499H426V601H324V499Zm150,0H576V601H474V499Zm150,0H726V601H624V499Zm150,0H876V601H774V499ZM324,649H426V751H324V649Zm150,0H576V751H474V649Zm150,0H726V751H624V649Zm150,0H876V751H774V649ZM324,799H426V901H324V799Zm150,0H576V901H474V799Zm150,0H726V901H624V799Zm150,0H876V901H774V799Z"/>
  <path id="Color_Fill_5" data-name="Color Fill 5" class="cls-2" d="M124,399c12.874,4.227,48.628,1,65,1h862c7.93,0,18.76,1.054,25-1V958c-3.84,6.267-2.95,21.734-6,29a107.569,107.569,0,0,1-56,57c-18.18,7.84-43.809,7-70,7H215c-23.851-5.58-43.359-14.44-60-27-39.632-29.912-31-106.012-31-175V399ZM326,501v98h98V501H326Zm150,0v98h98V501H476Zm150,0v98h98V501H626Zm150,0v98h98V501H776ZM326,651v98h98V651H326Zm150,0v98h98V651H476Zm150,0v98h98V651H626Zm150,0v98h98V651H776ZM326,801v98h98V801H326Zm150,0v98h98V801H476Zm150,0v98h98V801H626Zm150,0v98h98V801H776Z"/>
  <path id="Color_Fill_4" data-name="Color Fill 4" class="cls-3" d="M325,194c-0.634,49.462-5.388,82.726,28,100,6.118,3.165,16.807,8.569,28,6,48.742-11.188,44.724-47.229,44-106h3c10.758,16.528,17.65,22.16,23,46,8.959,39.927-27.461,74.978-52,83-8.009,2.618-23.014,5.535-34,3-34.91-8.054-56.19-26.093-65-60-6.478-24.932,4.639-48.075,14-61C317.156,200.642,318.718,195.27,325,194Zm450,0c-0.634,49.462-5.388,82.726,28,100,6.118,3.165,16.807,8.569,28,6,48.742-11.188,44.724-47.229,44-106h3c10.758,16.528,17.65,22.16,23,46,8.959,39.927-27.461,74.978-52,83-8.009,2.618-23.014,5.535-34,3-34.91-8.054-56.19-26.093-65-60-6.478-24.932,4.639-48.075,14-61C767.156,200.642,768.718,195.27,775,194Z"/>
  <path id="Color_Fill_3" data-name="Color Fill 3" class="cls-4" d="M367,74c67.245-.86,58,47.178,58,109,0,60.065,8.52,105.292-42,117-14.315,3.318-26.946-3.37-34-8-33.2-21.794-24-63.795-24-116,0-24.47-4.431-52.314,3-72,4.56-12.081,16.223-22.08,28-27C359.622,75.487,363.973,75.985,367,74Zm450,0c67.245-.86,58,47.178,58,109,0,60.065,8.52,105.292-42,117-14.315,3.318-26.946-3.37-34-8-33.205-21.794-24-63.795-24-116,0-24.47-4.431-52.314,3-72,4.56-12.081,16.223-22.08,28-27C809.622,75.487,813.973,75.985,817,74Z"/>
  <path id="Color_Fill_2" data-name="Color Fill 2" class="cls-5" d="M325,150v47c-17.341,8.062-29.607,49.192-21,75,8.753,26.246,43.9,61.657,85,51,30.56-7.925,70.529-42.423,59-87-2.936-11.353-7.833-22.5-14-31-1.223-1.686-8.241-6.715-9-8V150H775v47c-13.784,6.379-29.219,43.1-23,67,6.752,25.942,21.371,42.786,44,53,8.01,3.615,22.229,10.119,36,7,32.556-7.374,53.571-22.93,64-52,8.837-24.631-4.117-68.312-21-75V150c45.818-.328,105.063-5.853,139,8,31.34,12.792,51.03,38.819,60,74q0.495,14.5,1,29V400H125V321c0-23.038-3.469-55.344,1-76V232c8.232-33.4,27.709-60.7,57-73C217.667,144.445,277.346,149.866,325,150Z"/>
</svg>