<svg xmlns="http://www.w3.org/2000/svg" width="500" height="500" viewBox="50 50 500 500">
  <defs>
    <style>
      .cls-1 {
        fill: #1f1f1f;
        fill-rule: evenodd;
      }
    </style>
  </defs>
  <path id="Color_Fill_2" data-name="Color Fill 2" class="cls-1" d="M285.393,175.032c13.487-.159,28.447-1.31,39.763,1.623,47.729,12.37,75.208,38.22,92.509,81.148,5.641,14,11.507,40.89,6.492,61.673-2.507,10.386-4.185,20.719-8.115,30.024-12.346,29.229-37.264,54.253-66.542,66.542-10.61,4.453-22.785,6.217-34.893,8.926H302.434c-18.278,0-32.079-2.206-44.631-7.3-42.032-17.068-65.151-40.446-78.714-86.017-2.845-9.56-7.255-32.088-4.057-46.255l5.68-25.967c13.621-34.148,36.326-61.384,69.788-75.468,7.559-3.182,16.427-5.276,24.344-7.3C278.848,175.63,282.539,176.867,285.393,175.032Zm1.623,12.984c-2.656,1.667-6.073.647-9.737,1.623-6.864,1.826-14.5,3.693-21.1,6.491-30.325,12.867-53.574,38.742-64.107,71.411-17.451,54.127,14.31,105.635,44.631,125.779,7.611,5.057,15.227,7.656,24.345,11.361,10.012,4.068,35.025,11.145,51.935,7.3,44.314-10.067,74.935-30.3,90.886-68.164,3.386-8.038,5.159-17.115,7.3-25.967,4.764-19.672-1.153-43.749-6.492-56.8-15.292-37.4-40.33-60.5-81.96-71.41C312.525,186.966,299.321,187.983,287.016,188.016Z"/>
  <path id="Color_Fill_1" data-name="Color Fill 1" class="cls-1" d="M353.558,99.564c14.561,0.812,27.895,9.426,38.951,14.607,2.511,1.177,10.7,5.576,11.361,4.869,8.719-5.865,17.032-22.875,29.213-23.533,4.191,4,9.882,6.274,14.607,9.737a198.592,198.592,0,0,1,39.762,39.763c5.551,7.4,16.395,14.2,17.041,25.967-7.853,8.149-14.8,18.857-24.344,25.156,7.13,14.89,18.409,30.9,20.287,50.312,11.737-.089,26.177-1.211,36.517.812,7.3,15.335,9.609,59.322,4.868,80.336-1.874,8.309.52,22.209-6.491,25.156-4.188,2.655-27.877.9-34.894,0.812-0.812,14.561-9.426,27.895-14.607,38.951-1.177,2.511-5.576,10.7-4.869,11.361,5.865,8.719,22.874,17.032,23.533,29.213-4,4.191-6.274,9.882-9.737,14.607a198.592,198.592,0,0,1-39.763,39.762c-7.4,5.551-14.2,16.395-25.967,17.041-8.149-7.853-18.857-14.8-25.156-24.344-14.89,7.13-30.9,18.409-50.312,20.287,0.089,11.737,1.211,26.177-.812,36.517-15.335,7.3-59.322,9.609-80.336,4.868-8.309-1.874-22.209.52-25.156-6.491-2.655-4.188-.9-27.877-0.812-34.894-14.561-.812-27.9-9.426-38.951-14.607-2.511-1.177-10.7-5.576-11.361-4.869-8.719,5.865-17.032,22.874-29.213,23.533-4.191-4-9.882-6.274-14.607-9.737a198.592,198.592,0,0,1-39.762-39.763c-5.551-7.4-16.395-14.2-17.041-25.967,6.322-6.438,12.3-13.1,18.664-19.476,1.218-1.22,5.938-5.959,4.869-6.492-4.868-16.207-17.522-29.7-19.476-49.5-11.737.089-26.177,1.211-36.517-.812-7.3-15.335-9.609-59.322-4.869-80.336,1.874-8.309-.519-22.209,6.492-25.156,4.187-2.655,27.876-.9,34.894-0.812,1.1-19.436,14.157-33.882,19.476-49.5-1.19-9-22.987-16.084-23.533-30.025,4-4.191,6.274-9.882,9.737-14.607a198.592,198.592,0,0,1,39.763-39.762c7.4-5.551,14.2-16.395,25.967-17.041,8.149,7.853,18.857,14.8,25.156,24.344,14.89-7.13,30.9-18.409,50.312-20.287-0.089-11.737-1.211-26.177.812-36.517,15.335-7.3,59.322-9.609,80.336-4.869,8.309,1.874,22.209-.519,25.156,6.492C355.4,68.858,353.649,92.547,353.558,99.564ZM259.426,72.785c-0.018,7.721,2.049,29.825-.812,34.894-2.8,4.964-12.845,4.371-18.664,6.492-8.972,3.27-19.026,6.921-27.59,11.361-6.218,3.223-10.392,8.436-19.476,8.926-7.893-7.607-18.24-14.288-24.344-23.533-17.367,8.642-33,28.017-45.443,42.2-2,2.283-12.876,13.672-11.361,15.418,5.752,8.537,22.136,16.358,22.722,28.4-8.8,11.578-15,28.632-20.287,43.008-2.369,6.435-1.414,14.248-6.492,17.853-4.405,3.379-26.8,1.728-34.894,1.623-0.856,11.782-2.558,22.82-3.246,36.517l-0.811,5.68c2.051,12.158,3.227,27.514,4.057,38.951,7.721,0.018,29.825-2.049,34.894.812,4.964,2.8,4.371,12.845,6.492,18.664,3.27,8.972,6.921,19.026,11.361,27.59,3.223,6.218,8.436,10.392,8.926,19.476-7.607,7.893-14.288,18.24-23.533,24.344,8.642,17.367,28.017,33,42.2,45.443,2.283,2,13.672,12.876,15.418,11.361,8.537-5.752,16.358-22.136,28.4-22.722,11.578,8.8,28.632,15,43.008,20.287,6.435,2.369,14.248,1.414,17.853,6.492,3.379,4.4,1.728,26.8,1.623,34.894,11.782,0.856,22.82,2.557,36.517,3.246l5.68,0.811c12.158-2.05,27.514-3.227,38.951-4.057,0.018-7.721-2.049-29.825.812-34.894,2.8-4.964,12.845-4.371,18.664-6.492,8.972-3.27,19.026-6.921,27.59-11.361,6.218-3.223,10.392-8.436,19.476-8.926,7.893,7.607,18.24,14.288,24.344,23.533,14.839-7.5,34.758-28.231,44.631-41.385,3.747-4.991,9.952-8.951,12.173-15.419-1.173-8.868-22.235-15.4-22.722-29.213,8.8-11.578,15-28.632,20.287-43.008,2.369-6.435,1.414-14.248,6.492-17.853,4.4-3.379,26.8-1.728,34.894-1.623,0.856-11.782,2.557-22.82,3.246-36.517q0.4-2.84.811-5.68c-2.05-12.158-3.227-27.514-4.057-38.951-7.721-.018-29.825,2.049-34.894-0.812-4.964-2.8-4.371-12.845-6.492-18.664-3.27-8.972-6.921-19.026-11.361-27.59-3.223-6.218-8.436-10.392-8.926-19.476,6.056-6.161,11.755-12.557,17.853-18.664,1.219-1.22,5.937-5.958,4.869-6.491-4.52-13.563-30.6-35.168-41.386-44.632-2.289-2.008-13.661-12.868-15.418-11.361-8.537,5.752-16.358,22.136-28.4,22.722-11.578-8.8-28.632-15-43.008-20.287-6.435-2.369-14.248-1.414-17.853-6.492-3.379-4.405-1.728-26.8-1.623-34.894-11.782-.856-22.82-2.558-36.517-3.246l-5.68-.811C286.219,70.779,270.863,71.955,259.426,72.785Z"/>
</svg>