<svg xmlns="http://www.w3.org/2000/svg" width="350" height="350" viewBox="125 125 350 350">
  <defs>
    <style>
      .cls-1 {
        fill: #fff;
        fill-rule: evenodd;
      }
    </style>
  </defs>
  <path id="Color_Fill_2" data-name="Color Fill 2" class="cls-1" d="M291.014,223.12c8.3-.1,17.5-0.806,24.462,1,29.363,7.61,46.268,23.513,56.911,49.922,3.471,8.612,7.079,25.156,3.994,37.941-1.542,6.39-2.574,12.747-4.992,18.472a78.589,78.589,0,0,1-40.936,40.936c-6.528,2.739-14.018,3.825-21.467,5.491H301.5c-11.245,0-19.735-1.357-27.458-4.493-25.858-10.5-40.08-24.882-48.424-52.917-1.75-5.882-4.464-19.74-2.5-28.456q1.748-7.986,3.494-15.975c8.38-21.008,22.348-37.763,42.933-46.428,4.651-1.957,10.106-3.246,14.977-4.493C286.987,223.488,289.258,224.249,291.014,223.12Zm1,7.987c-1.634,1.026-3.736.4-5.99,1a99.214,99.214,0,0,0-12.98,3.994c-18.656,7.915-32.959,23.833-39.438,43.931-10.736,33.3,8.8,64.987,27.457,77.379,4.682,3.111,9.367,4.71,14.976,6.99,6.16,2.5,21.548,6.856,31.951,4.493,27.261-6.194,46.1-18.643,55.912-41.935,2.084-4.945,3.174-10.529,4.493-15.975,2.931-12.1-.709-26.914-3.993-34.946-9.408-23-24.811-37.218-50.422-43.931C307.705,230.462,299.582,231.088,292.012,231.107Z"/>
  <path id="Color_Fill_1" data-name="Color Fill 1" class="cls-1" d="M332.949,176.692c8.958,0.5,17.161,5.8,23.962,8.986,1.545,0.724,6.585,3.431,6.989,3,5.364-3.608,10.479-14.072,17.972-14.478,2.579,2.458,6.08,3.86,8.986,5.991a122.151,122.151,0,0,1,24.462,24.462c3.415,4.551,10.086,8.738,10.484,15.975-4.832,5.013-9.108,11.6-14.977,15.476,4.387,9.16,11.326,19.007,12.481,30.951,7.22-.054,16.1-0.745,22.465.5,4.49,9.434,5.911,36.494,2.995,49.423-1.153,5.111.319,13.662-3.994,15.475-2.576,1.634-17.149.555-21.466,0.5-0.5,8.958-5.8,17.161-8.986,23.962-0.724,1.545-3.431,6.585-3,6.989,3.608,5.364,14.072,10.479,14.478,17.972-2.458,2.579-3.86,6.08-5.991,8.986a122.151,122.151,0,0,1-24.462,24.462c-4.551,3.415-8.738,10.086-15.975,10.484-5.013-4.832-11.6-9.108-15.476-14.977-9.16,4.387-19.007,11.326-30.951,12.481,0.054,7.22.745,16.1-.5,22.465-9.434,4.49-36.494,5.911-49.423,2.995-5.111-1.153-13.662.319-15.475-3.994-1.634-2.576-.555-17.149-0.5-21.466-8.958-.5-17.161-5.8-23.962-8.986-1.545-.724-6.585-3.431-6.989-3-5.364,3.608-10.479,14.072-17.972,14.478-2.579-2.458-6.08-3.86-8.986-5.991a122.151,122.151,0,0,1-24.462-24.462c-3.415-4.551-10.086-8.738-10.484-15.975,3.89-3.96,7.564-8.057,11.482-11.981,0.75-.751,3.653-3.666,3-3.994-3-9.971-10.779-18.271-11.982-30.452-7.22.054-16.1,0.745-22.465-.5-4.49-9.434-5.911-36.494-3-49.423,1.153-5.111-.319-13.662,3.994-15.475,2.576-1.634,17.149-.555,21.466-0.5,0.675-11.956,8.709-20.844,11.982-30.452-0.732-5.537-14.142-9.895-14.478-18.471,2.458-2.579,3.86-6.08,5.991-8.986a122.151,122.151,0,0,1,24.462-24.462c4.551-3.415,8.738-10.086,15.975-10.484,5.013,4.832,11.6,9.108,15.476,14.977,9.16-4.387,19.007-11.326,30.951-12.481-0.054-7.22-.745-16.1.5-22.465,9.434-4.49,36.494-5.911,49.423-3,5.111,1.153,13.662-.319,15.475,3.994C334.083,157.8,333,172.375,332.949,176.692Zm-57.91-16.474c-0.011,4.75,1.26,18.348-.5,21.467-1.723,3.053-7.9,2.689-11.482,3.993a147.779,147.779,0,0,0-16.974,6.989c-3.825,1.984-6.393,5.191-11.981,5.492-4.856-4.68-11.222-8.79-14.977-14.478-10.684,5.317-20.3,17.236-27.956,25.96-1.232,1.4-7.922,8.411-6.989,9.485,3.538,5.252,13.617,10.064,13.978,17.473-5.413,7.122-9.226,17.615-12.481,26.459-1.457,3.958-.869,8.765-3.993,10.982-2.711,2.079-16.485,1.063-21.467,1-0.527,7.248-1.573,14.039-2,22.465q-0.249,1.747-.5,3.494c1.261,7.48,1.985,16.927,2.5,23.963,4.75,0.011,18.348-1.26,21.467.5,3.053,1.723,2.689,7.9,3.993,11.482a147.779,147.779,0,0,0,6.989,16.974c1.984,3.825,5.191,6.393,5.492,11.981-4.68,4.856-8.79,11.222-14.478,14.977,5.317,10.684,17.236,20.3,25.96,27.956,1.4,1.232,8.411,7.922,9.485,6.989,5.252-3.538,10.064-13.617,17.473-13.978,7.122,5.413,17.615,9.226,26.459,12.481,3.958,1.457,8.765.869,10.982,3.993,2.079,2.711,1.063,16.485,1,21.467,7.248,0.527,14.039,1.573,22.465,2l3.494,0.5c7.48-1.261,16.927-1.985,23.963-2.5,0.011-4.75-1.26-18.348.5-21.467,1.723-3.053,7.9-2.689,11.482-3.993a147.779,147.779,0,0,0,16.974-6.989c3.825-1.984,6.393-5.191,11.981-5.492,4.856,4.68,11.222,8.79,14.977,14.478,9.129-4.617,21.383-17.368,27.457-25.461,2.305-3.07,6.122-5.506,7.488-9.485-0.721-5.456-13.678-9.472-13.978-17.972,5.413-7.122,9.226-17.615,12.481-26.459,1.457-3.958.869-8.765,3.993-10.982,2.711-2.079,16.485-1.063,21.467-1,0.527-7.248,1.573-14.039,2-22.465q0.249-1.747.5-3.494c-1.261-7.48-1.985-16.927-2.5-23.963-4.75-.011-18.348,1.26-21.467-0.5-3.053-1.723-2.689-7.9-3.993-11.482a147.779,147.779,0,0,0-6.989-16.974c-1.984-3.825-5.191-6.393-5.492-11.981,3.726-3.791,7.232-7.726,10.983-11.482,0.75-.751,3.653-3.666,3-3.994-2.78-8.344-18.823-21.635-25.46-27.457-1.408-1.236-8.4-7.917-9.485-6.989-5.252,3.538-10.064,13.617-17.473,13.978-7.122-5.413-17.615-9.226-26.459-12.481-3.958-1.457-8.765-.869-10.982-3.993-2.079-2.711-1.063-16.485-1-21.467-7.248-.527-14.039-1.573-22.465-2l-3.494-.5C291.522,158.983,282.075,159.707,275.039,160.218Z"/>
</svg>