<svg xmlns="http://www.w3.org/2000/svg" width="800" height="800" viewBox="200 200 800 800">
  <defs>
    <style>
      .cls-1 {
        fill: #d29958;
      }

      .cls-1, .cls-2, .cls-3, .cls-4, .cls-5, .cls-6 {
        fill-rule: evenodd;
      }

      .cls-2 {
        fill: #9f482d;
      }

      .cls-3 {
        fill: #f9d97b;
      }

      .cls-4 {
        fill: #f77462;
      }

      .cls-5 {
        fill: #2ea99c;
      }
    </style>
  </defs>
  <path id="Color_Fill_9" data-name="Color Fill 9" class="cls-1" d="M435.882,506.4H670.515v58.659H435.882V506.4Zm0,234.009H670.515v58.659H435.882V740.405Z"/>
  <path id="Color_Fill_8" data-name="Color Fill 8" class="cls-2" d="M855.85,422.153v4.368h0.624a12.451,12.451,0,0,1,1.248,5.617c-1.66.979-2.442,2.442-3.744,3.744l-7.489,7.488c-6.944,6.945-14.77,13.167-20.592,21.217L817.16,472.7v1.248q-2.808,2.5-5.616,4.992v1.248l-4.368,3.745v1.248l-3.744,3.12v1.248l-3.12,2.5v1.248l-3.121,2.5v1.248l-2.5,1.872v1.248l-2.5,1.872v1.248l-1.872,1.248v1.248l-2.5,1.873v1.248l-1.872,1.248-0.624,1.872-1.248.624v1.248l-1.248.624v1.248l-1.872,1.248v1.248l-1.248.624v1.248l-1.872,1.248v1.248l-1.248.624-0.624,1.872h-0.624v1.248l-1.248.624v1.248l-1.248.624v1.248l-1.248.624v1.248l-1.249.624v1.248l-1.248.625v1.248l-1.248.624-0.624,2.5-1.248.624-0.624,2.5-1.248.624-0.624,2.5-1.248.624L761,549.454l-1.248.624v1.248h-0.624v1.248H758.5v1.248h-0.624v1.248l-1.248.624v1.248h-0.624v1.248h-0.624v1.248h-0.624v1.249h-0.624v1.248H753.51v1.248h-0.624v1.248h-0.624v1.248h-0.624v1.248h-0.624v1.248H750.39l-0.624,2.5h-0.624v1.248h-0.624v1.872h-0.624v1.248H747.27L742.9,586.271l-1.872.625v0.624h-1.248l-0.624,1.248h-1.248l-0.624,1.248h-1.248v0.624l-1.872.624-0.624,1.248h-1.248l-1.248,1.872H729.8l-1.248,1.872H727.3l-0.624,1.248a14.525,14.525,0,0,1-3.744,2.5q-1.56-5.616-3.12-11.232h-0.624V587.52h-0.625v-1.873H717.94V584.4h-0.624v-1.872h-0.624v-1.248h-0.624l-0.624-3.744H714.82v-1.248H714.2v-1.872h-0.624v-1.872h-0.624v-1.872h-0.624V568.8H711.7v-1.872h-0.624l-0.624-3.744h-0.624v-1.248H709.2l-0.624-3.745h-0.624l-0.624-2.5h-0.624v-1.248h-0.624l-0.624-3.12-1.248-.624-1.248-3.744-1.248-.624-0.624-1.872-1.872-1.248v-1.248l-4.368-3.744-0.624-1.248H692.98l-1.249-1.872h-1.248l-0.624-1.249h-1.248l-0.624-1.248h-1.248v-0.624h-1.248v-0.624h-1.248v-0.624c-1.757-1.075-1.1.558-1.872-1.872l3.12-1.872,0.624-1.248h1.248l0.624-1.248h1.248c4.55-3.009,6.624-4.9,14.353-4.992v0.624l3.12,0.624v0.624h1.248l1.248,1.872,5.616,4.992v1.248l1.248,0.624v1.248l1.248,0.624q0.312,0.936.624,1.872h0.624l0.625,2.5,1.248,0.624v1.248h0.624v1.248h0.624v1.248h0.624v1.248h0.624v1.248h0.624v1.248h0.624l1.248,3.744h0.624v1.872h0.624l4.368,10.609h0.624v-0.625c1.232-1.108.526-1.215,1.248-2.5h0.624v-1.248h0.624l0.624-1.872,1.248-.624,0.624-2.5,1.248-.624v-1.248l1.248-.624v-1.248l1.248-.624V545.71l1.248-.624v-1.248h0.624l0.624-1.872,1.248-.624v-1.248l1.249-.624v-1.248l1.872-1.248v-1.248l1.248-.624v-1.249q0.936-.622,1.872-1.248v-1.248l1.872-1.248v-1.248l1.872-1.248v-1.248l1.872-1.248v-1.248l1.248-.624,0.624-1.872,1.872-1.248v-1.248l2.5-1.872v-1.248l2.5-1.872v-1.248l2.5-1.872v-1.248q1.248-.936,2.5-1.872V506.4l3.121-2.5v-1.248l3.12-2.5v-1.248l3.744-3.12V494.54l3.744-3.12v-1.248l2.5-1.872,1.872-2.5h0.624v-1.248l5.616-4.993c7.288-10.066,16.893-18.141,25.585-26.833,4.83-4.828,9.353-9.664,14.977-13.728l3.12-3.744H839l2.5-3.12h1.248l2.5-3.12h1.248l1.248-1.873h1.248q0.624-.936,1.248-1.872h1.249l0.624-1.248,1.872-.624v-0.624Z"/>
  <path id="Color_Fill_7" data-name="Color Fill 7" class="cls-3" d="M717.316,295.476h34.946v71.763c0,9.937.894,20.879-3.12,26.833l-2.5,1.872-1.873,2.5h-1.248v0.624l-2.5.624v0.624c-2.42,1.041-10.042.976-12.48,0v-0.624h-1.872l-0.624-1.248h-1.248v-0.624a5.117,5.117,0,0,0-2.5-1.248,5.008,5.008,0,0,0-1.248-2.5h-0.624v-1.248l-1.248-.624-1.873-5.616V295.476Z"/>
  <path id="Color_Fill_6" data-name="Color Fill 6" class="cls-4" d="M650.546,950.7H859.594v0.624H858.97v10.609s-0.432.119-.624,1.248h-2.5v-0.624H844.617v-0.624c-3.6-1.015-9.264.282-12.48-.624h-6.864a49.053,49.053,0,0,1-11.857-1.248h-6.864l-15.6-.624v-0.624h-12.48V958.19H766.614v-0.624H754.758v-0.624l-48.05-1.873v-0.624l-15.6-.624H683c-3.216-.906-8.878.391-12.48-0.624v-0.624l-19.969-.624V950.7Z"/>
  <path id="Color_Fill_5" data-name="Color Fill 5" class="cls-5" d="M813.416,960.062c0.056,5.311-.78,9.715-1.248,14.352a65.92,65.92,0,0,1-17.473-1.872h-6.24v-0.624h-6.24v-0.624H776.6V970.67h-6.241v-0.624h-6.24v-0.624H758.5V968.8l-60.53-5.616c-8.856-2.534-21.076-1.222-29.953-3.744h-6.241c-7.047-2.013-16.635-1.111-23.713-3.12h-6.24v-0.625h-5.616v-0.624h-6.24v-0.624h-6.24v-0.624h-5.617V953.2h-6.24a47.942,47.942,0,0,0-11.856-1.248l-0.624-1.248h43.057c2.5,2.139,11.719-.467,15.6.624,6.945,1.953,16.766-.075,23.713,1.872h11.856c3.034,0.854,8.432-.339,11.857.624,7.149,2.011,17.21-.126,24.337,1.872h11.856v0.625l15.6,0.624h8.112v0.624l16.225,0.624h8.112c3.034,0.853,8.432-.339,11.856.624v0.624Z"/>
  <path id="Color_Fill_4" data-name="Color Fill 4" class="cls-6" d="M787.831,294.852h-12.48c0.205-17.027.275-33.392-6.241-43.681h-0.624l-0.624-1.872-1.248-.624v-1.248l-4.368-3.745-0.624-1.248h-1.248l-0.624-1.248-1.872-.624v-0.624h-1.872v-0.624h-1.248V238.69c-3.637-1.541-13.16-1.477-16.849,0v0.624l-3.744,1.248v0.624h-1.248l-0.624,1.248h-1.248q-0.312.624-.624,1.248l-3.744,3.121v1.248l-1.872,1.248-0.624,2.5-1.248.624v1.248h-0.624v1.248h-0.624v1.872h-0.624v1.248h-0.624v1.872h-0.624v2.5c-3.2,9.6-2.5,23.9-2.5,36.818v59.906c0,7.3-1.211,21.1.624,26.833v2.5h0.624v1.872h0.625q0.623,1.872,1.248,3.744l3.744,3.12,0.624,1.248,2.5,0.624v0.624h1.248v0.624h2.5v0.624c2.091,0.624,8.015-.087,9.36-0.624v-0.624h1.872l0.624-1.248,2.5-.624q1.247-1.56,2.5-3.12h0.624l0.624-2.5,1.248-.624V389.7c2.226-5.415,1.872-11.6,1.872-19.345V259.907h11.856v95.476c0,15.451,1.72,34.074-4.368,43.681l-1.248.624v1.248l-1.872,1.249v1.248h-0.624q-0.936,1.247-1.872,2.5h-1.248l-1.872,2.5h-1.248v0.624l-3.744,1.248v0.624c-2.154.94-12.518,2.989-16.225,1.872v-0.624h-2.5v-0.624h-1.872v-0.624h-1.872V410.3l-3.744-1.248v-0.624h-1.249q-0.622-.936-1.248-1.872h-1.248q-1.248-1.56-2.5-3.12l-1.872-1.248v-1.249l-1.248-.624-0.624-2.5-1.248-.624V395.32h-0.624v-1.248h-0.624c-3.6-8.438-1.872-29.873-1.872-41.809V267.4l3.12-13.1H709.2v-1.248h0.624v-1.872h0.624l1.248-3.744h0.624v-1.248h0.624l0.624-2.5H714.2l0.624-1.872,1.248-.624v-1.248l3.121-2.5q2.183-2.5,4.368-4.992h1.248l0.624-1.248,1.872-.624v-0.624h1.248V229.33l2.5-.624v-0.624h1.872v-0.624h1.248v-0.624l4.992-.624v-0.624h7.489c10.324,0,14.535,2.156,20.592,6.24h1.248q1.248,1.56,2.5,3.12h1.249v0.624l1.872,1.248v1.248l2.5,1.872v1.248l1.872,1.248,0.624,2.5,1.248,0.624,0.624,2.5h0.624l0.624,2.5h0.624l0.624,3.744h0.624C788.287,265,787.875,279.969,787.831,294.852ZM681.747,259.907h12.481v34.945H681.747V259.907Z"/>
  <path id="Color_Fill_3" data-name="Color Fill 3" class="cls-3" d="M389.08,295.476H705.46v66.771c0,19.353-1.092,31.861,8.736,41.81l1.872,2.5h1.248l0.624,1.248,1.873,0.624v0.624l3.744,1.248v0.624h1.872v0.624l5.616,0.624v0.624h7.488v-0.624h3.12l6.865-2.5,0.624-1.248,2.5-.624v-0.624c1.287-1.043,1.895-1.979,3.744-2.5,0.5-1.85,1.459-2.465,2.5-3.745H758.5q0.312-1.246.624-2.5l1.248-.624,3.12-9.36v-4.368c1.806-6.319.624-17.973,0.624-25.585V295.476H904.524V951.325c-169.659-.16-343.8,0-515.444,0C389.4,735.185,389.08,513.692,389.08,295.476ZM722.933,598.752h1.872l1.872-2.5h1.248l1.872-2.5h1.248l0.624-1.248h1.248l0.624-1.248h1.248l0.624-1.248h1.248v-0.624l1.872-.624,0.624-1.248h1.248l0.624-1.249,1.872-.624v-1.872h0.624v-1.248h0.624v-1.872h0.624v-1.248H745.4q0.31-1.56.624-3.12h0.624v-1.248h0.624l1.248-3.744h0.624v-1.872h0.624l1.248-3.744h0.624v-1.248h0.624v-1.248h0.624v-1.248h0.624v-1.248h0.624v-1.249h0.624V558.19l1.248-.624v-1.248h0.624V555.07h0.624v-1.248h0.624v-1.248H758.5v-1.248l1.248-.624L761,546.958l1.248-.624,1.248-3.744h0.624l0.624-1.872,1.248-.624,0.624-2.5h0.624l0.624-1.872,1.248-.624,0.624-2.5h0.624l0.624-1.872,1.249-.624v-1.248l1.248-.624v-1.248l1.248-.624v-1.248h0.624l0.624-1.872,1.248-.624v-1.248l1.872-1.248v-1.248l1.248-.624v-1.248l1.872-1.248v-1.248l1.248-.624v-1.248l2.5-1.872v-1.248l1.872-1.248V507.02q0.936-.622,1.872-1.248v-1.248l1.872-1.248v-1.248l2.5-1.872v-1.248l2.5-1.872v-1.248l3.121-2.5v-1.248l3.12-2.5V488.3l3.744-3.12v-1.248l4.368-3.745v-1.248q2.808-2.495,5.616-4.992V472.7l8.113-7.488v-1.248l7.488-6.864,14.352-14.977,10.609-9.984v-3.12c-1.085-.974-0.609-1.125-1.248-2.5h-0.624v-3.744H854.6c-1.1,1.69-2.713,1.952-4.369,3.12q-0.622.936-1.248,1.872h-1.248l-1.248,1.873h-1.248l-0.624,1.248-1.872,1.248v0.624H841.5l-2.5,3.12h-1.248l-3.744,4.368h-1.248q-2.808,3.12-5.616,6.24H825.9q-0.624.936-1.248,1.872l-3.745,3.12-11.856,12.481-5.616,4.992V470.2l-8.737,8.112v1.248l-5.616,4.993V485.8l-4.992,4.368v1.248l-3.744,3.12v1.248l-3.744,3.12v1.248l-3.12,2.5V503.9l-3.121,2.5v1.249l-2.5,1.872v1.248l-3.12,2.5v1.248l-2.5,1.872v1.248l-1.872,1.248v1.248l-1.872,1.248v1.248l-2.5,1.872v1.248l-1.872,1.248v1.248l-1.248.624v1.248l-1.872,1.248v1.248l-1.872,1.248V535.1l-1.248.624v1.248l-1.872,1.248v1.248l-1.249.624v1.248l-1.248.624v1.248l-1.872,1.248v1.248l-1.248.624-0.624,1.872h-0.624l-0.624,2.5-1.248.624v1.248l-1.248.624-0.624,2.5-1.248.624-0.624,2.5-1.248.624-0.624,1.873h-0.624v-0.624c-1.4-1.291-.456-1.385-1.248-3.121h-0.624v-1.248h-0.624V555.07h-0.624v-1.248H727.3v-1.248h-0.624V550.7h-0.624l-1.248-3.744h-0.624V545.71h-0.624v-1.248h-0.624v-1.248h-0.624v-1.248h-0.624v-1.248h-0.624V539.47h-0.624v-1.248h-0.624v-1.248h-0.624v-1.248l-1.249-.624v-1.249l-1.248-.624-0.624-2.5-1.872-1.248v-1.248l-4.992-4.368L707.956,522h-1.248v-0.624c-1.273-.722-1.394-0.009-2.5-1.248-5.615-.116-7.862.618-11.232,2.5h-1.249l-0.624,1.248-2.5.624-1.248,1.872h-1.248v0.624l-3.12,2.5v0.624l3.744,1.248,0.624,1.248,2.5,0.624,0.624,1.249h1.248l1.249,1.872h1.248l1.248,1.872,4.368,3.744v1.248l1.872,1.248v1.248l1.248,0.624v1.248l1.248,0.624,1.248,3.744h0.624l1.248,3.744h0.624q0.312,1.56.624,3.12H709.2v1.248h0.624v1.873h0.624v1.872h0.624v1.872H711.7v1.872h0.624v1.872h0.624v1.248h0.624v1.872H714.2v1.872h0.624v1.872h0.624v1.872h0.624v1.248h0.624l0.624,3.744h0.624V584.4h0.624q0.312,1.56.625,3.121h0.624l0.624,3.744h0.624v1.248h0.624ZM437.13,507.02v57.411H669.891V507.02H437.13Zm0,234.009V798.44H669.891V741.029H437.13Z"/>
  <path id="Color_Fill_2" data-name="Color Fill 2" class="cls-4" d="M377.224,284.244L596.88,295.476V296.1H390.328V938.845c-1.161-.2-1.248-0.624-1.248-0.624H376.6c-3.035-.853-8.432.338-11.857-0.624v-0.624l-22.465-.624L342.9,925.74h0.624V915.132h0.624V907.02l0.624-15.6H345.4v-8.112l0.624-15.6h0.624V855.85c1.919-6.786-.038-16.923,1.872-23.713V820.28c0.858-3.034-.342-8.435.624-11.856,1.918-6.786-.037-16.922,1.873-23.713q4.055-82.675,8.112-165.366h0.624l0.624-15.6v-8.112c0.856-3.034-.342-8.435.624-11.857,0.856-3.034-.342-8.435.624-11.856,0.856-3.034-.342-8.435.624-11.857,1.96-6.943-.081-16.767,1.872-23.712q0.312-11.856.624-23.713c0.857-3.034-.342-8.435.624-11.857,0.857-3.034-.342-8.435.624-11.856,0.857-3.034-.342-8.435.624-11.857,1.96-6.943-.08-16.767,1.872-23.713l0.624-23.088c0.856-3.034-.341-8.435.624-11.857,1.959-6.943-.08-16.767,1.872-23.713V382.84c1.959-6.944-.079-16.768,1.872-23.713V347.27H374.1l0.624-15.6v-8.112c0.855-3.035-.34-8.434.624-11.857,0.855-3.034-.34-8.433.625-11.856H376.6Z"/>
  <path id="Color_Fill_1" data-name="Color Fill 1" class="cls-5" d="M364.743,272.388a46.123,46.123,0,0,1,12.481,1.248h6.24v0.624h5.616v0.624h6.24v0.624h6.24v0.624h5.617v0.624h6.24c7.068,2.026,16.664,1.113,23.713,3.12h6.24V280.5l11.857,0.624v0.624h6.24v0.624h6.24c8.853,2.536,21.079,1.218,29.953,3.744h5.616v0.624l12.481,0.624c8.856,2.533,21.073,1.224,29.953,3.744h6.24v0.624h5.616c3.482,1,9.126.623,12.481,1.872v0.624h-4.992c-2.362-2.014-8.408.347-11.857-.624-6.945-1.953-16.766.077-23.713-1.872H517.629c-3.216-.9-8.878.39-12.481-0.624-6.945-1.953-16.766.077-23.712-1.872H469.579c-7.149-2.011-17.211.127-24.337-1.872H433.386V286.74l-15.6-.624h-8.112c-3.217-.9-8.878.39-12.481-0.624v-0.624l-19.968-.624q-16.848,320.717-33.7,641.5l-48.05-4.368Q330.107,596.913,364.743,272.388Z"/>
</svg>